<svg xmlns="http://www.w3.org/2000/svg" width="760" height="460" viewBox="0 0 760 460" role="img" aria-labelledby="title desc">
  <title id="title">VeraBench Risk-Coverage Curve</title>
  <desc id="desc">Selective prediction curve showing risk as coverage increases by confidence threshold.</desc>
  <style>
    .bg { fill: #ffffff; }
    .axis { stroke: #1f2937; stroke-width: 1.4; }
    .grid { stroke: #e5e7eb; stroke-width: 1; }
    .curve { fill: none; stroke: #2563eb; stroke-width: 3; stroke-linejoin: round; stroke-linecap: round; }
    .label { fill: #111827; font: 13px -apple-system, BlinkMacSystemFont, "Segoe UI", sans-serif; }
    .small { fill: #4b5563; font: 12px -apple-system, BlinkMacSystemFont, "Segoe UI", sans-serif; }
    .title { fill: #111827; font: 700 18px -apple-system, BlinkMacSystemFont, "Segoe UI", sans-serif; }
  </style>
  <rect class="bg" width="100%" height="100%"/>
  <text x="72" y="26" class="title">Risk-Coverage Curve</text>
  <text x="72" y="442" class="small">AURC=0.0328; acc>=0.80: 1.000, acc>=0.90: 1.000, acc>=0.95: 0.572</text>
  <line x1="72.00" y1="44" x2="72.00" y2="386" class="grid"/><line x1="72" y1="386.00" x2="728" y2="386.00" class="grid"/><line x1="203.20" y1="44" x2="203.20" y2="386" class="grid"/><line x1="72" y1="317.60" x2="728" y2="317.60" class="grid"/><line x1="334.40" y1="44" x2="334.40" y2="386" class="grid"/><line x1="72" y1="249.20" x2="728" y2="249.20" class="grid"/><line x1="465.60" y1="44" x2="465.60" y2="386" class="grid"/><line x1="72" y1="180.80" x2="728" y2="180.80" class="grid"/><line x1="596.80" y1="44" x2="596.80" y2="386" class="grid"/><line x1="72" y1="112.40" x2="728" y2="112.40" class="grid"/><line x1="728.00" y1="44" x2="728.00" y2="386" class="grid"/><line x1="72" y1="44.00" x2="728" y2="44.00" class="grid"/>
  <line x1="72" y1="386" x2="728" y2="386" class="axis"/>
  <line x1="72" y1="44" x2="72" y2="386" class="axis"/>
  <polyline points="76.32,386.00 80.63,386.00 84.95,386.00 89.26,386.00 93.58,386.00 97.89,386.00 102.21,386.00 106.53,386.00 110.84,386.00 115.16,386.00 119.47,386.00 123.79,386.00 128.11,386.00 132.42,386.00 136.74,386.00 141.05,386.00 145.37,386.00 149.68,386.00 154.00,386.00 158.32,386.00 162.63,386.00 166.95,386.00 171.26,386.00 175.58,386.00 179.89,386.00 184.21,386.00 188.53,386.00 192.84,386.00 197.16,386.00 201.47,386.00 205.79,386.00 210.11,386.00 214.42,386.00 218.74,386.00 223.05,386.00 227.37,386.00 231.68,386.00 236.00,386.00 240.32,386.00 244.63,386.00 248.95,386.00 253.26,386.00 257.58,386.00 261.89,386.00 266.21,386.00 270.53,386.00 274.84,386.00 279.16,386.00 283.47,386.00 287.79,386.00 292.11,386.00 296.42,386.00 300.74,386.00 305.05,386.00 309.37,386.00 313.68,386.00 318.00,386.00 322.32,386.00 326.63,386.00 330.95,386.00 335.26,386.00 339.58,386.00 343.89,386.00 348.21,386.00 352.53,386.00 356.84,386.00 361.16,386.00 365.47,386.00 369.79,386.00 374.11,386.00 378.42,381.18 382.74,381.25 387.05,376.63 391.37,376.76 395.68,376.88 400.00,377.00 404.32,377.12 408.63,377.23 412.95,377.34 417.26,377.45 421.58,373.33 425.89,373.49 430.21,373.64 434.53,373.79 438.84,373.93 443.16,374.07 447.47,370.28 451.79,366.57 456.11,366.79 460.42,367.00 464.74,367.21 469.05,367.41 473.37,367.61 477.68,367.81 482.00,368.00 486.32,368.19 490.63,364.85 494.95,365.06 499.26,365.27 503.58,365.48 507.89,365.68 512.21,365.88 516.53,366.08 520.84,366.27 525.16,363.20 529.47,363.42 533.79,363.63 538.11,363.83 542.42,364.04 546.74,364.24 551.05,364.43 555.37,364.62 559.68,364.81 564.00,365.00 568.32,365.18 572.63,365.36 576.95,365.54 581.26,365.71 585.58,365.88 589.89,366.05 594.21,363.39 598.53,363.57 602.84,360.98 607.16,361.18 611.47,361.38 615.79,361.57 620.11,361.76 624.42,361.95 628.74,362.14 633.05,362.32 637.37,362.50 641.68,362.68 646.00,362.86 650.32,360.48 654.63,358.13 658.95,355.82 663.26,356.04 667.58,356.26 671.89,356.47 676.21,356.69 680.53,356.89 684.84,357.10 689.16,357.30 693.47,357.50 697.79,357.70 702.11,357.89 706.42,355.76 710.74,355.96 715.05,356.16 719.37,356.36 723.68,356.56 728.00,356.75" class="curve"/>
  <text x="72.00" y="410" text-anchor="middle">0.0</text><text x="58" y="390.00" text-anchor="end">0.0</text><text x="203.20" y="410" text-anchor="middle">0.2</text><text x="58" y="321.60" text-anchor="end">0.2</text><text x="334.40" y="410" text-anchor="middle">0.4</text><text x="58" y="253.20" text-anchor="end">0.4</text><text x="465.60" y="410" text-anchor="middle">0.6</text><text x="58" y="184.80" text-anchor="end">0.6</text><text x="596.80" y="410" text-anchor="middle">0.8</text><text x="58" y="116.40" text-anchor="end">0.8</text><text x="728.00" y="410" text-anchor="middle">1.0</text><text x="58" y="48.00" text-anchor="end">1.0</text>
  <text x="400.00" y="426" text-anchor="middle" class="label">Coverage</text>
  <text x="22" y="215.00" text-anchor="middle" class="label" transform="rotate(-90 22 215.00)">Risk</text>
</svg>
