<svg xmlns="http://www.w3.org/2000/svg" width="760" height="460" viewBox="0 0 760 460" role="img" aria-labelledby="title desc">
  <title id="title">VeraBench Risk-Coverage Curve</title>
  <desc id="desc">Selective prediction curve showing risk as coverage increases by confidence threshold.</desc>
  <style>
    .bg { fill: #ffffff; }
    .axis { stroke: #1f2937; stroke-width: 1.4; }
    .grid { stroke: #e5e7eb; stroke-width: 1; }
    .curve { fill: none; stroke: #2563eb; stroke-width: 3; stroke-linejoin: round; stroke-linecap: round; }
    .label { fill: #111827; font: 13px -apple-system, BlinkMacSystemFont, "Segoe UI", sans-serif; }
    .small { fill: #4b5563; font: 12px -apple-system, BlinkMacSystemFont, "Segoe UI", sans-serif; }
    .title { fill: #111827; font: 700 18px -apple-system, BlinkMacSystemFont, "Segoe UI", sans-serif; }
  </style>
  <rect class="bg" width="100%" height="100%"/>
  <text x="72" y="26" class="title">Risk-Coverage Curve</text>
  <text x="72" y="442" class="small">AURC=0.1015; acc>=0.80: 1.000, acc>=0.90: 0.401, acc>=0.95: 0.079</text>
  <line x1="72.00" y1="44" x2="72.00" y2="386" class="grid"/><line x1="72" y1="386.00" x2="728" y2="386.00" class="grid"/><line x1="203.20" y1="44" x2="203.20" y2="386" class="grid"/><line x1="72" y1="317.60" x2="728" y2="317.60" class="grid"/><line x1="334.40" y1="44" x2="334.40" y2="386" class="grid"/><line x1="72" y1="249.20" x2="728" y2="249.20" class="grid"/><line x1="465.60" y1="44" x2="465.60" y2="386" class="grid"/><line x1="72" y1="180.80" x2="728" y2="180.80" class="grid"/><line x1="596.80" y1="44" x2="596.80" y2="386" class="grid"/><line x1="72" y1="112.40" x2="728" y2="112.40" class="grid"/><line x1="728.00" y1="44" x2="728.00" y2="386" class="grid"/><line x1="72" y1="44.00" x2="728" y2="44.00" class="grid"/>
  <line x1="72" y1="386" x2="728" y2="386" class="axis"/>
  <line x1="72" y1="44" x2="72" y2="386" class="axis"/>
  <polyline points="76.32,386.00 80.63,386.00 84.95,386.00 89.26,386.00 93.58,386.00 97.89,386.00 102.21,386.00 106.53,386.00 110.84,386.00 115.16,386.00 119.47,386.00 123.79,386.00 128.11,359.69 132.42,361.57 136.74,363.20 141.05,364.62 145.37,365.88 149.68,367.00 154.00,368.00 158.32,351.80 162.63,353.43 166.95,354.91 171.26,356.26 175.58,357.50 179.89,358.64 184.21,359.69 188.53,360.67 192.84,361.57 197.16,362.41 201.47,363.20 205.79,363.94 210.11,364.62 214.42,365.27 218.74,365.88 223.05,366.46 227.37,367.00 231.68,367.51 236.00,368.00 240.32,368.46 244.63,360.35 248.95,360.98 253.26,361.57 257.58,362.14 261.89,362.68 266.21,363.20 270.53,363.70 274.84,356.89 279.16,357.50 283.47,358.08 287.79,358.64 292.11,359.18 296.42,359.69 300.74,360.19 305.05,360.67 309.37,361.13 313.68,361.57 318.00,362.00 322.32,362.41 326.63,362.81 330.95,357.50 335.26,352.36 339.58,347.39 343.89,348.00 348.21,343.25 352.53,343.91 356.84,344.55 361.16,345.16 365.47,345.76 369.79,346.35 374.11,346.91 378.42,347.46 382.74,348.00 387.05,348.52 391.37,349.03 395.68,349.52 400.00,350.00 404.32,350.47 408.63,346.54 412.95,347.04 417.26,347.52 421.58,348.00 425.89,348.46 430.21,344.80 434.53,345.29 438.84,345.76 443.16,346.23 447.47,342.76 451.79,343.25 456.11,343.73 460.42,344.20 464.74,344.66 469.05,345.11 473.37,341.87 477.68,338.70 482.00,339.20 486.32,339.69 490.63,340.16 494.95,340.63 499.26,337.64 503.58,338.12 507.89,338.59 512.21,339.06 516.53,339.51 520.84,336.67 525.16,337.14 529.47,337.60 533.79,338.06 538.11,335.33 542.42,335.80 546.74,336.25 551.05,336.70 555.37,337.14 559.68,337.58 564.00,338.00 568.32,338.42 572.63,338.83 576.95,339.23 581.26,339.63 585.58,340.02 589.89,340.40 594.21,340.78 598.53,341.15 602.84,341.51 607.16,341.87 611.47,342.22 615.79,342.57 620.11,342.91 624.42,343.25 628.74,340.93 633.05,341.28 637.37,341.62 641.68,341.95 646.00,342.29 650.32,340.06 654.63,340.40 658.95,338.22 663.26,336.07 667.58,336.43 671.89,336.79 676.21,337.14 680.53,335.06 684.84,335.42 689.16,335.78 693.47,336.13 697.79,336.47 702.11,336.81 706.42,334.82 710.74,335.16 715.05,335.50 719.37,335.84 723.68,336.17 728.00,334.25" class="curve"/>
  <text x="72.00" y="410" text-anchor="middle">0.0</text><text x="58" y="390.00" text-anchor="end">0.0</text><text x="203.20" y="410" text-anchor="middle">0.2</text><text x="58" y="321.60" text-anchor="end">0.2</text><text x="334.40" y="410" text-anchor="middle">0.4</text><text x="58" y="253.20" text-anchor="end">0.4</text><text x="465.60" y="410" text-anchor="middle">0.6</text><text x="58" y="184.80" text-anchor="end">0.6</text><text x="596.80" y="410" text-anchor="middle">0.8</text><text x="58" y="116.40" text-anchor="end">0.8</text><text x="728.00" y="410" text-anchor="middle">1.0</text><text x="58" y="48.00" text-anchor="end">1.0</text>
  <text x="400.00" y="426" text-anchor="middle" class="label">Coverage</text>
  <text x="22" y="215.00" text-anchor="middle" class="label" transform="rotate(-90 22 215.00)">Risk</text>
</svg>
